<?xml version="1.0" encoding="iso-8859-1"?>
<!-- Uploaded to: SVG Repo, www.svgrepo.com, Generator: SVG Repo Mixer Tools -->
<!DOCTYPE svg PUBLIC "-//W3C//DTD SVG 1.1//EN" "http://www.w3.org/Graphics/SVG/1.1/DTD/svg11.dtd">
<svg fill="#000000" version="1.1" id="Capa_1" xmlns="http://www.w3.org/2000/svg" xmlns:xlink="http://www.w3.org/1999/xlink" 
	 width="800px" height="800px" viewBox="0 0 205.695 205.694"
	 xml:space="preserve">
<g>
	<path d="M183.957,113.298c-21.74,11.732-23.838-9.611-23.838-9.611c-17.969-2.08-31.351-22.162-31.351-22.162
		c-24.258,12.54-10.746,47.922-0.284,61.505c1.502,1.938,2.672,4.03,3.642,6.183h25.428v25.215h24.045v31.268H16.167v-31.268h24.045
		v-25.215h9.274c-0.056-0.071-0.121-0.131-0.177-0.201c-21.001-26.386-15.584-51.329-9.605-67.797
		C46.907,61.419,56.636,50.564,70.833,39c21.075-17.18,60.039-19.352,60.039-19.352C132.125,12.543,152.618,0,152.618,0
		c-2.099,2.084-2.932,13.382-2.932,13.382c2.099-3.768,8.783-7.54,8.783-7.54c-3.765,8.781,0,27.601,0,27.601
		c10.876,10.888,22.993,48.516,22.993,48.516l4.616,6.682C191.918,97.02,189.755,110.177,183.957,113.298z M118.3,16.435
		c2.984,0,5.396-2.415,5.396-5.405s-2.412-5.394-5.396-5.394c-2.979,0-5.4,2.403-5.4,5.394S115.321,16.435,118.3,16.435z
		 M94.899,20.641c2.985,0,5.399-2.42,5.399-5.405c0-2.982-2.414-5.411-5.399-5.411c-2.979,0-5.399,2.423-5.399,5.411
		C89.5,18.22,91.92,20.641,94.899,20.641z M75.701,29.037c2.977,0,5.4-2.421,5.4-5.405c0-2.985-2.423-5.406-5.4-5.406
		c-2.984,0-5.399,2.415-5.399,5.406C70.301,26.607,72.716,29.037,75.701,29.037z M57.706,39.827c2.985,0,5.399-2.409,5.399-5.391
		c0-2.991-2.415-5.405-5.399-5.405s-5.399,2.402-5.399,5.405C52.306,37.412,54.727,39.827,57.706,39.827z M43.907,54.825
		c2.982,0,5.396-2.408,5.396-5.399c0-2.987-2.414-5.402-5.396-5.402c-2.985,0-5.399,2.415-5.399,5.402
		C38.507,52.417,40.928,54.825,43.907,54.825z M33.708,72.833c2.982,0,5.399-2.421,5.399-5.406c0-2.991-2.417-5.411-5.399-5.411
		c-2.979,0-5.399,2.415-5.399,5.411C28.309,70.412,30.723,72.833,33.708,72.833z M26.505,94.428c2.982,0,5.397-2.42,5.397-5.411
		c0-2.988-2.415-5.402-5.397-5.402c-2.979,0-5.399,2.414-5.399,5.402C21.106,92.007,23.527,94.428,26.505,94.428z M22.903,117.825
		c2.985,0,5.399-2.399,5.399-5.402c0-2.979-2.414-5.391-5.399-5.391c-2.979,0-5.399,2.4-5.399,5.391
		C17.503,115.414,19.924,117.825,22.903,117.825z M27.108,128.63c-2.982,0-5.396,2.412-5.396,5.391c0,2.991,2.415,5.415,5.396,5.415
		c2.985,0,5.4-2.4,5.4-5.415C32.508,131.042,30.093,128.63,27.108,128.63z"/>
</g>
</svg>